<svg data-v-423bf9ae="" xmlns="http://www.w3.org/2000/svg" viewBox="0 0 559 310" class="iconLeftSlogan"><!----><!----><!----><g data-v-423bf9ae="" id="f66ebd69-4576-48da-af04-6a6f7e80c012" fill="white" transform="matrix(4.285714577655423,0,0,4.285714577655423,359.96571858634707,-12.000000374657809)"><path d="M4.54 11.82C3.50 11.82 2.60 11.30 2.55 10.16L0.42 10.16C0.43 12.49 2.35 13.52 4.45 13.52C6.40 13.52 8.40 12.70 8.40 10.46C8.40 6.83 2.90 8.05 2.90 6.36C2.90 5.64 3.72 5.36 4.31 5.36C5.36 5.36 5.94 5.68 6.05 6.68L8.08 6.68C8.01 4.51 6.24 3.64 4.28 3.64C2.55 3.64 0.73 4.56 0.73 6.52C0.73 10.04 6.23 8.85 6.23 10.70C6.23 11.55 5.19 11.82 4.54 11.82ZM11.76 10.22C11.76 9.41 12.39 8.68 13.23 8.68C14.07 8.68 14.70 9.41 14.70 10.22C14.70 11.03 14.07 11.76 13.23 11.76C12.39 11.76 11.76 11.03 11.76 10.22ZM11.76 16.80L11.76 12.56C12.18 13.19 13.08 13.44 13.87 13.44C15.62 13.44 16.94 11.93 16.94 10.22C16.94 8.51 15.62 6.99 13.87 6.99C13.08 6.99 12.31 7.21 11.76 7.88L11.76 7.13L9.66 7.13L9.66 16.80ZM18.13 10.64C18.13 12.31 18.80 13.44 20.45 13.44C21.27 13.44 21.92 13.08 22.34 12.54L22.34 13.30L24.44 13.30L24.44 7.13L22.34 7.13L22.34 10.22C22.34 11.05 21.83 11.76 21.17 11.76C20.51 11.76 20.23 11.35 20.23 10.64L20.23 7.13L18.13 7.13ZM28.77 8.75L29.89 8.75L29.89 7.13L28.77 7.13L28.77 4.77L26.68 4.77L26.68 7.13L25.56 7.13L25.56 8.75L26.68 8.75L26.68 13.30L28.77 13.30ZM33.66 8.75L34.78 8.75L34.78 7.13L33.66 7.13L33.66 4.77L31.57 4.77L31.57 7.13L30.45 7.13L30.45 8.75L31.57 8.75L31.57 13.30L33.66 13.30ZM38.00 13.30L38.00 2.80L35.90 2.80L35.90 13.30ZM41.58 9.48C41.58 9.48 41.65 8.33 42.97 8.33C44.24 8.33 44.34 9.48 44.34 9.48ZM46.35 10.08C46.35 8.11 44.80 6.99 42.92 6.99C40.85 6.99 39.33 8.29 39.33 10.22C39.33 12.18 40.80 13.44 42.92 13.44C44.56 13.44 45.88 12.63 46.24 11.00L44.10 11.00C44.09 11.45 43.62 11.94 42.88 11.94C42.06 11.94 41.55 11.19 41.55 10.47L46.34 10.47C46.34 10.35 46.35 10.21 46.35 10.08Z"></path></g><!----><g data-v-423bf9ae="" id="1be040cc-6e5b-46ca-88fa-4df7970f851d" transform="matrix(1.8545830620659722,0,0,1.8545830620659722,0.11773132864445301,0.22387389956045922)" stroke="none" fill="white"><path d="M184.281 115.903c0 25.051-13.48 49.732-41.172 49.732-10.02 0-31.879-4.734-31.879-23.135 0-22.041 16.576-30.242 26.597-32.975 10.02-2.732 27.873-3.826 29.876-6.012 2.002-2.186-6.193-56.292-10.019-58.296-3.826-2.005-26.598.363-44.633 3.28-18.035 2.915-41.901 8.745-43.541 12.024s9.109 38.803 9.109 61.393-25.868 44.998-44.996 44.998c-14.939 0-34.189-8.461-33.611-25.412C1.198 106.795 58.9 105.762 58.9 105.762s-1.729-13.691-4.509-30.605c-2.654-16.147-10.929-45.061-9.472-48.702 1.457-3.646 27.326-21.134 62.122-24.596 34.794-3.462 50.098-1.459 53.012.91s15.484 42.083 19.491 66.133c4.009 24.048 4.737 37.347 4.737 47.001z"></path></g><!----><g data-v-423bf9ae="" id="efde1cb7-d6f1-4169-9608-d58561f14ccb" fill="white" transform="matrix(0.8459083976010778,0,0,0.8459083976010778,360.8098461650578,58.22359167237021)"><path d="M8.93 2.21L5.67 6.61L2.35 2.21L1.13 2.21L1.13 11.48L2.18 11.48L2.18 3.81L5.67 8.22L9.10 3.81L9.10 11.48L10.15 11.48L10.15 2.21ZM26.14 2.21L26.14 7.52C26.14 9.67 24.71 10.57 23.24 10.57C21.77 10.57 20.36 9.67 20.36 7.52L20.36 2.21L19.31 2.21L19.31 7.49C19.31 9.95 20.93 11.59 23.24 11.59C25.56 11.59 27.19 9.94 27.19 7.49L27.19 2.21ZM36.96 4.65C36.96 4.03 37.32 3.08 39.42 3.08C41.12 3.08 41.90 3.82 42.01 4.75L43.09 4.75C43.01 3.36 41.89 2.10 39.42 2.10C37.10 2.10 35.94 3.15 35.94 4.66C35.94 7.84 42.28 6.69 42.28 8.96C42.28 10.05 41.30 10.60 39.73 10.60C38.12 10.60 36.82 10.05 36.75 8.71L35.66 8.71C35.80 10.37 36.92 11.59 39.66 11.59C41.94 11.59 43.33 10.64 43.33 8.92C43.33 5.68 36.96 6.80 36.96 4.65ZM53.00 2.21L51.95 2.21L51.95 11.48L53.00 11.48ZM66.25 10.57C63.99 10.57 62.73 8.93 62.73 6.85C62.73 4.76 63.99 3.12 66.25 3.12C67.77 3.12 68.78 3.85 69.26 4.98L70.36 4.98C69.78 3.29 68.26 2.10 66.16 2.10C63.38 2.10 61.68 4.21 61.68 6.85C61.68 9.48 63.38 11.59 66.16 11.59C68.26 11.59 69.78 10.40 70.36 8.71L69.26 8.71C68.78 9.84 67.77 10.57 66.25 10.57ZM94.75 6.75C95.41 6.45 96.00 5.85 96.00 4.66C96.00 3.54 95.26 2.21 93.07 2.21L88.91 2.21L88.91 11.48L93.31 11.48C95.42 11.48 96.47 10.43 96.47 9.04C96.47 7.66 95.54 7 94.75 6.75ZM89.96 3.21L93.18 3.21C94.46 3.21 94.95 3.98 94.95 4.75C94.95 5.88 94.04 6.36 93.07 6.36L89.96 6.36ZM93.42 10.49L89.96 10.49L89.96 7.31L93.31 7.31C94.78 7.31 95.42 8.09 95.42 8.96C95.42 9.93 94.70 10.49 93.42 10.49ZM109.34 2.21L108.02 2.21L104.09 11.48L105.25 11.48L106.39 8.79L110.98 8.79L112.11 11.48L113.27 11.48ZM106.79 7.83L108.68 3.30L110.57 7.83ZM127.20 2.21L119.69 2.21L119.69 3.22L122.92 3.22L122.92 11.48L123.97 11.48L123.97 3.22L127.20 3.22ZM142.11 2.21L134.60 2.21L134.60 3.22L137.83 3.22L137.83 11.48L138.88 11.48L138.88 3.22L142.11 3.22ZM150.44 2.21L150.44 11.48L156.55 11.48L156.55 10.47L151.49 10.47L151.49 2.21ZM171.72 3.22L171.72 2.21L164.91 2.21L164.91 11.48L171.72 11.48L171.72 10.47L165.96 10.47L165.96 7.35L171.11 7.35L171.11 6.33L165.96 6.33L165.96 3.22ZM180.92 4.65C180.92 4.03 181.29 3.08 183.39 3.08C185.08 3.08 185.86 3.82 185.98 4.75L187.05 4.75C186.97 3.36 185.85 2.10 183.39 2.10C181.06 2.10 179.90 3.15 179.90 4.66C179.90 7.84 186.24 6.69 186.24 8.96C186.24 10.05 185.26 10.60 183.69 10.60C182.08 10.60 180.78 10.05 180.71 8.71L179.62 8.71C179.76 10.37 180.88 11.59 183.62 11.59C185.91 11.59 187.29 10.64 187.29 8.92C187.29 5.68 180.92 6.80 180.92 4.65Z"></path></g></svg>