<svg data-v-fde0c5aa="" xmlns="http://www.w3.org/2000/svg" viewBox="0 0 300 300" class="font"><!----><defs data-v-fde0c5aa=""><!----></defs><rect data-v-fde0c5aa="" fill="transparent" x="0" y="0" width="300px" height="300px" class="logo-background-square"></rect><defs data-v-fde0c5aa=""><!----></defs><g data-v-fde0c5aa="" id="aa927b2f-c32e-4a20-8a51-38828833500e" fill="#00d1b2" transform="matrix(4.789897638542113,0,0,4.789897638542113,37.988242911872256,103.05900565468858)"><path d="M4.54 11.82C3.50 11.82 2.60 11.30 2.55 10.16L0.42 10.16C0.43 12.49 2.35 13.52 4.45 13.52C6.40 13.52 8.40 12.70 8.40 10.46C8.40 6.83 2.90 8.05 2.90 6.36C2.90 5.64 3.72 5.36 4.31 5.36C5.36 5.36 5.94 5.68 6.05 6.68L8.08 6.68C8.01 4.51 6.24 3.64 4.28 3.64C2.55 3.64 0.73 4.56 0.73 6.52C0.73 10.04 6.23 8.85 6.23 10.70C6.23 11.55 5.19 11.82 4.54 11.82ZM11.76 10.22C11.76 9.41 12.39 8.68 13.23 8.68C14.07 8.68 14.70 9.41 14.70 10.22C14.70 11.03 14.07 11.76 13.23 11.76C12.39 11.76 11.76 11.03 11.76 10.22ZM11.76 16.80L11.76 12.56C12.18 13.19 13.08 13.44 13.87 13.44C15.62 13.44 16.94 11.93 16.94 10.22C16.94 8.51 15.62 6.99 13.87 6.99C13.08 6.99 12.31 7.21 11.76 7.88L11.76 7.13L9.66 7.13L9.66 16.80ZM18.13 10.64C18.13 12.31 18.80 13.44 20.45 13.44C21.27 13.44 21.92 13.08 22.34 12.54L22.34 13.30L24.44 13.30L24.44 7.13L22.34 7.13L22.34 10.22C22.34 11.05 21.83 11.76 21.17 11.76C20.51 11.76 20.23 11.35 20.23 10.64L20.23 7.13L18.13 7.13ZM28.77 8.75L29.89 8.75L29.89 7.13L28.77 7.13L28.77 4.77L26.68 4.77L26.68 7.13L25.56 7.13L25.56 8.75L26.68 8.75L26.68 13.30L28.77 13.30ZM33.66 8.75L34.78 8.75L34.78 7.13L33.66 7.13L33.66 4.77L31.57 4.77L31.57 7.13L30.45 7.13L30.45 8.75L31.57 8.75L31.57 13.30L33.66 13.30ZM38.00 13.30L38.00 2.80L35.90 2.80L35.90 13.30ZM41.58 9.48C41.58 9.48 41.65 8.33 42.97 8.33C44.24 8.33 44.34 9.48 44.34 9.48ZM46.35 10.08C46.35 8.11 44.80 6.99 42.92 6.99C40.85 6.99 39.33 8.29 39.33 10.22C39.33 12.18 40.80 13.44 42.92 13.44C44.56 13.44 45.88 12.63 46.24 11.00L44.10 11.00C44.09 11.45 43.62 11.94 42.88 11.94C42.06 11.94 41.55 11.19 41.55 10.47L46.34 10.47C46.34 10.35 46.35 10.21 46.35 10.08Z"></path></g><!----><!----></svg>